HIERARCHY
ROOT Hips
{
	OFFSET -14.64140 90.27770 -84.91600
	CHANNELS 6 Xposition Yposition Zposition Zrotation Xrotation Yrotation
	JOINT Spine
	{
		OFFSET 0.00000 13.20850 -1.60436
		CHANNELS 3 Zrotation Xrotation Yrotation
		JOINT Spine1
		{
			OFFSET 0.00000 8.61716 0.00000
			CHANNELS 3 Zrotation Xrotation Yrotation
			JOINT Spine2
			{
				OFFSET 0.00000 8.61717 0.00000
				CHANNELS 3 Zrotation Xrotation Yrotation
				JOINT Spine3
				{
					OFFSET 0.00000 8.61717 0.00000
					CHANNELS 3 Zrotation Xrotation Yrotation
					JOINT Neck
					{
						OFFSET 0.00000 11.07920 1.10792
						CHANNELS 3 Zrotation Xrotation Yrotation
						JOINT Neck1
						{
							OFFSET 0.00000 7.08032 0.00000
							CHANNELS 3 Zrotation Xrotation Yrotation
							JOINT Head
							{
								OFFSET 0.00000 7.08031 0.00000
								CHANNELS 3 Zrotation Xrotation Yrotation
								End site
								{
									OFFSET 0.00000 0.00000 0.00000
								}
							}
						}
					}
					JOINT RightShoulder
					{
						OFFSET -0.01000 7.91373 5.19711
						CHANNELS 3 Zrotation Xrotation Yrotation
						JOINT RightArm
						{
							OFFSET -18.41580 0.00000 0.00000
							CHANNELS 3 Zrotation Xrotation Yrotation
							JOINT RightForeArm
							{
								OFFSET -29.11090 0.00000 0.00000
								CHANNELS 3 Zrotation Xrotation Yrotation
								JOINT RightHand
								{
									OFFSET -24.65040 0.00000 0.00000
									CHANNELS 3 Zrotation Xrotation Yrotation
									JOINT RightHandThumb1
									{
										OFFSET -5.35114 -0.85590 3.97906
										CHANNELS 3 Zrotation Xrotation Yrotation
										JOINT RightHandThumb2
										{
											OFFSET -4.52789 0.00000 0.00000
											CHANNELS 3 Zrotation Xrotation Yrotation
											JOINT RightHandThumb3
											{
												OFFSET -2.46976 0.00000 0.00000
												CHANNELS 3 Zrotation Xrotation Yrotation
												End site
												{
													OFFSET 0.00000 0.00000 0.00000
												}
											}
										}
									}
									JOINT RightHandIndex1
									{
										OFFSET -14.26970 0.00000 2.88139
										CHANNELS 3 Zrotation Xrotation Yrotation
										JOINT RightHandIndex2
										{
											OFFSET -5.48836 0.00000 0.00000
											CHANNELS 3 Zrotation Xrotation Yrotation
											JOINT RightHandIndex3
											{
												OFFSET -3.01859 0.00000 0.00000
												CHANNELS 3 Zrotation Xrotation Yrotation
												End site
												{
													OFFSET 0.00000 0.00000 0.00000
												}
											}
										}
									}
									JOINT RightHandMiddle1
									{
										OFFSET -14.26970 0.00000 -0.09147
										CHANNELS 3 Zrotation Xrotation Yrotation
										JOINT RightHandMiddle2
										{
											OFFSET -6.17441 0.00000 0.00000
											CHANNELS 3 Zrotation Xrotation Yrotation
											JOINT RightHandMiddle3
											{
												OFFSET -3.56743 0.00000 0.00000
												CHANNELS 3 Zrotation Xrotation Yrotation
												End site
												{
													OFFSET 0.00000 0.00000 0.00000
												}
											}
										}
									}
									JOINT RightHandRing1
									{
										OFFSET -12.69180 0.00000 -3.06433
										CHANNELS 3 Zrotation Xrotation Yrotation
										JOINT RightHandRing2
										{
											OFFSET -5.62556 0.00000 0.00000
											CHANNELS 3 Zrotation Xrotation Yrotation
											JOINT RightHandRing3
											{
												OFFSET -3.56744 0.00000 0.00000
												CHANNELS 3 Zrotation Xrotation Yrotation
												End site
												{
													OFFSET 0.00000 0.00000 0.00000
												}
											}
										}
									}
									JOINT RightHandPinky1
									{
										OFFSET -11.11390 0.00000 -6.03719
										CHANNELS 3 Zrotation Xrotation Yrotation
										JOINT RightHandPinky2
										{
											OFFSET -4.52789 0.00000 0.00000
											CHANNELS 3 Zrotation Xrotation Yrotation
											JOINT RightHandPinky3
											{
												OFFSET -2.46976 0.00000 0.00000
												CHANNELS 3 Zrotation Xrotation Yrotation
												End site
												{
													OFFSET 0.00000 0.00000 0.00000
												}
											}
										}
									}
								}
							}
						}
					}
					JOINT LeftShoulder
					{
						OFFSET 0.01000 7.91373 5.19711
						CHANNELS 3 Zrotation Xrotation Yrotation
						JOINT LeftArm
						{
							OFFSET 18.41580 0.00000 0.00000
							CHANNELS 3 Zrotation Xrotation Yrotation
							JOINT LeftForeArm
							{
								OFFSET 29.11090 0.00000 0.00000
								CHANNELS 3 Zrotation Xrotation Yrotation
								JOINT LeftHand
								{
									OFFSET 24.65040 0.00000 0.00000
									CHANNELS 3 Zrotation Xrotation Yrotation
									JOINT LeftHandThumb1
									{
										OFFSET 5.35114 -0.85590 3.97906
										CHANNELS 3 Zrotation Xrotation Yrotation
										JOINT LeftHandThumb2
										{
											OFFSET 4.52789 0.00000 0.00000
											CHANNELS 3 Zrotation Xrotation Yrotation
											JOINT LeftHandThumb3
											{
												OFFSET 2.46977 0.00000 0.00000
												CHANNELS 3 Zrotation Xrotation Yrotation
												End site
												{
													OFFSET 0.00000 0.00000 0.00000
												}
											}
										}
									}
									JOINT LeftHandIndex1
									{
										OFFSET 14.26970 0.00000 2.88139
										CHANNELS 3 Zrotation Xrotation Yrotation
										JOINT LeftHandIndex2
										{
											OFFSET 5.48836 0.00000 0.00000
											CHANNELS 3 Zrotation Xrotation Yrotation
											JOINT LeftHandIndex3
											{
												OFFSET 3.01859 0.00000 0.00000
												CHANNELS 3 Zrotation Xrotation Yrotation
												End site
												{
													OFFSET 0.00000 0.00000 0.00000
												}
											}
										}
									}
									JOINT LeftHandMiddle1
									{
										OFFSET 14.26970 0.00000 -0.09147
										CHANNELS 3 Zrotation Xrotation Yrotation
										JOINT LeftHandMiddle2
										{
											OFFSET 6.17440 0.00000 0.00000
											CHANNELS 3 Zrotation Xrotation Yrotation
											JOINT LeftHandMiddle3
											{
												OFFSET 3.56744 0.00000 0.00000
												CHANNELS 3 Zrotation Xrotation Yrotation
												End site
												{
													OFFSET 0.00000 0.00000 0.00000
												}
											}
										}
									}
									JOINT LeftHandRing1
									{
										OFFSET 12.69180 0.00000 -3.06433
										CHANNELS 3 Zrotation Xrotation Yrotation
										JOINT LeftHandRing2
										{
											OFFSET 5.62556 0.00000 0.00000
											CHANNELS 3 Zrotation Xrotation Yrotation
											JOINT LeftHandRing3
											{
												OFFSET 3.56744 0.00000 0.00000
												CHANNELS 3 Zrotation Xrotation Yrotation
												End site
												{
													OFFSET 0.00000 0.00000 0.00000
												}
											}
										}
									}
									JOINT LeftHandPinky1
									{
										OFFSET 11.11390 0.00000 -6.03719
										CHANNELS 3 Zrotation Xrotation Yrotation
										JOINT LeftHandPinky2
										{
											OFFSET 4.52789 0.00000 0.00000
											CHANNELS 3 Zrotation Xrotation Yrotation
											JOINT LeftHandPinky3
											{
												OFFSET 2.46976 0.00000 0.00000
												CHANNELS 3 Zrotation Xrotation Yrotation
												End site
												{
													OFFSET 0.00000 0.00000 0.00000
												}
											}
										}
									}
								}
							}
						}
					}
					JOINT pCube4
					{
						OFFSET 0.00000 10.91090 1.10792
						CHANNELS 3 Zrotation Xrotation Yrotation
						End site
						{
							OFFSET 0.00000 0.00000 0.00000
						}
					}
				}
			}
		}
	}
	JOINT RightUpLeg
	{
		OFFSET -9.98441 0.00000 0.00000
		CHANNELS 3 Zrotation Xrotation Yrotation
		JOINT RightLeg
		{
			OFFSET 0.00000 -42.11790 0.00000
			CHANNELS 3 Zrotation Xrotation Yrotation
			JOINT RightFoot
			{
				OFFSET 0.00000 -45.00020 -0.00001
				CHANNELS 3 Zrotation Xrotation Yrotation
				JOINT RightForeFoot
				{
					OFFSET 0.00000 -3.74820 0.00000
					CHANNELS 3 Zrotation Xrotation Yrotation
					JOINT RightToeBase
					{
						OFFSET 0.00000 0.06325 14.43120
						CHANNELS 3 Zrotation Xrotation Yrotation
						End site
						{
							OFFSET 0.00000 0.00000 0.00000
						}
					}
				}
			}
		}
	}
	JOINT LeftUpLeg
	{
		OFFSET 9.98441 0.00000 0.00000
		CHANNELS 3 Zrotation Xrotation Yrotation
		JOINT LeftLeg
		{
			OFFSET 0.00000 -42.11800 0.00000
			CHANNELS 3 Zrotation Xrotation Yrotation
			JOINT LeftFoot
			{
				OFFSET 0.00000 -45.00070 0.00000
				CHANNELS 3 Zrotation Xrotation Yrotation
				JOINT LeftForeFoot
				{
					OFFSET 0.00000 -3.74824 0.00000
					CHANNELS 3 Zrotation Xrotation Yrotation
					JOINT LeftToeBase
					{
						OFFSET 0.00000 0.06325 14.43110
						CHANNELS 3 Zrotation Xrotation Yrotation
						End site
						{
							OFFSET 0.00000 0.00000 0.00000
						}
					}
				}
			}
		}
	}
}
MOTION
Frames: 4
Frame Time: 0.050000
0.03871421610364384 0.029306787779194432 0.04019179398708319 0.015828164691229534 -0.020543161048492797 0.024190078589885325 2.0416507863731965 1.1937033514270952 -1.784913634956749 -0.8868644650551074 3.5388618732412263 0.36968753787738196 -1.1670836952748886 -1.505555987226169 0.22371734255467002 0.4290743783370936 -0.14595769819792703 -0.5163972178314431 1.7956915219919058 13.666860764898747 -5.128804640457255 0.36605117615581073 0.4869976643144255 -12.478222473074545 2.0290886694305885 -14.993062003575822 -1.025900899647336 -11.92140908522241 3.71157830001566 -17.31356382451953 72.33603187602033 -15.010605959928789 22.883437149711195 15.048345562921332 2.128240308468522 94.22905582221802 2.3385034666473787 -0.056052137225050466 -0.2587266971593493 4.51501276435525 -0.09271254058719726 -1.5604797852712289 -0.040710293251190854 0.04216135549684171 -56.2551230049604 -0.047687207431262306 0.0005787809708723168 -56.25550371966367 -38.72279669322447 0.0431779668064757 -0.03993007143877508 -0.026987997137554592 -0.0007534360082880926 -0.006896039662740603 0.009093467090995589 -0.0047014403475085145 0.02509128209147976 -36.697695406157564 -0.030803574087874187 0.004115414864591349 0.0019956402245346234 -0.049825666109353885 -0.008578049068552286 0.008472449431799594 -0.03497660562219251 0.015853314735171813 -19.752841354750892 0.02741187483743808 0.03790064995753029 -0.028143125445997435 -0.015158269783398655 0.018948512694766023 -0.04620261399235561 0.019840161624763496 -0.0003190389027953274 24.01056689409807 -0.0036430918131118866 0.04606200090343997 28.834187562070323 -0.03470386206842991 0.03678257125548748 28.819369204292823 0.03317233962437302 0.01610307138953637 7.649431111857479 1.9445781534290347 13.309543516134408 -71.24702518330609 21.955588684278425 -11.42378795304665 -16.451593385592087 3.0303022290819905 -66.07197722327773 -11.986403537986142 -1.839306210781993 0.6832455114594258 -0.473186731024866 0.1051684547200066 -8.114352615844954 0.018012884482058133 -0.03062199746660981 44.531969016984604 -0.010809950817796565 0.0033595875826261273 44.58656909469494 12.502314573537609 -0.004079781818786737 0.005950870449273551 0.008398909948773396 -0.020803340077341463 -0.0028094730447931512 -0.04210127561618556 0.014998632154706789 -0.04760315389580765 11.112349510977667 0.0047463697919264145 0.0006319237839472078 0.029973359542422185 -0.0011873541100184484 0.017080677328582077 0.006271731546934673 -0.013850866100564846 0.022874195966088147 4.770719371435861 0.01505949837672956 -0.03935882375875123 0.012371007627921296 -0.04962552312271937 -0.035991279028328556 -0.011282016255978128 0.02781726651696391 -0.016167903903837263 -5.61385984709238 -0.003422969732838008 -0.03132747150436848 -6.712698407354836 0.00815584874449945 -0.0033347613837312346 -6.759452648028028 -0.006089103473346074 0.004983314127661654 -0.009514986005809852 -0.005028562902903912 -0.018707325178171905 8.065103044338192 3.4849632221079774 -19.262224274852468 -0.00040666549859639216 10.429121977781787 0.045044486826407715 -5.647997115530783 -15.702103934850031 3.2274395826393234 0.006208562632328779 -0.027214396181131594 0.018543261141400303 -0.01327331182902344 4.70653385753766 0.02527656548212743 12.467046028652785 -8.240462103526841 6.896287454486151 -0.003689262010612587 46.38298097451747 -0.010359606894851076 -4.365146153280557 -14.727341972560927 -3.8437334966364425 -0.04111165627685381 -0.020110026478307317 0.013222399318671724 0.025917744505289327 -10.710586227540379 0.01828495337458147 
-0.0015888858717553326 0.04333044743825653 -0.024210555966033342 0.011606416489223293 -0.03629774604650782 -0.023064317658582283 2.3719618148986896 1.1983175505867363 -1.8681844400181427 -0.8564948331310877 3.60432017682436 0.375516997023074 -1.1392136889229787 -1.5721947640481742 0.455387437561586 0.4865009457212349 -0.13313232064840358 -0.41724861780993294 1.941221399666221 13.785150987762075 -5.321361327678674 0.35859132135058547 0.5882662787885842 -12.805196206643446 2.1209095500418775 -14.93671298105391 -1.0600580271492024 -12.276854775709412 3.8273063754352954 -17.424299387027204 71.76597069531556 -14.861173659216556 23.763337479049117 12.531957541021356 1.8208326620102155 92.97297019497783 2.381237564825072 -0.08515609855721215 -0.21094104139155642 4.5727493565513635 -0.143717368069628 -1.6035943875114944 0.014051263689064038 -0.023415812331305984 -56.215083511532974 -0.029611123224578435 0.02310940410755928 -56.249431155483094 -38.799271679443365 -0.022116773349520138 0.010372290473559373 -0.0046097594540787734 -0.036669331098743124 0.014790254079840588 -0.026134632924470436 -0.032426697284491816 -0.007063390049201233 -36.72429570186968 0.0180722726012159 0.02548726289975164 0.02137825481027376 0.044149160197062234 -0.010067302622470749 0.0029888083159623994 0.04135136229609584 -0.007096874537860423 -19.80029135684709 -0.04304950985050781 0.03292355588757254 0.03997918892935776 0.0035946836057109107 0.009554648907558411 -0.028938272102833538 -0.02741923119338205 -0.02155900847515946 24.056860302253007 -0.04819375865738115 0.017480735076785926 28.87722816476573 -0.03855289664601252 0.025620607419029818 28.909776615838013 -0.012325141425385391 0.03716221573687188 7.569431613563407 1.8941295785510952 13.50950297957909 -71.32560155710365 21.929404958162028 -10.457742844122517 -9.309425456818936 0.08645668844097651 -59.56435970041284 -12.422888600612403 -1.423234005677634 0.77541684207316 -0.5153061552825258 0.07238767554651031 -8.11551135360246 0.04943873888561686 -0.0026754620867076103 44.57132272636697 -0.01399438932109754 0.035017498721564635 44.61196902273407 12.431333727901562 -0.048069434138994845 0.00037164561809151854 0.024524342883174267 -0.019875479311382022 -0.004084326400868439 0.024289001591385133 -0.005790010553204334 -0.008504702288092044 11.155719185142418 0.02614776324737592 0.008422854450505269 0.02301034510468004 0.03570246122844881 -0.04789613591823408 -0.007080675169688246 -0.03462187128107352 0.0043772917281817356 4.806043312723002 0.01935942285238934 -0.02229511907510874 -0.014836826386017427 -0.012628290844569068 0.028824618943305097 -0.0020101693090637833 -0.02141513708784046 0.034655088466669315 -5.622704559001478 -0.023998148465815577 -0.012607179102952067 -6.7393021518715095 0.029001107838610377 -0.01436650863654357 -6.727516108351537 0.023105838067890867 -0.0276453679267648 0.04864104087796625 -0.02653518572149809 0.045082582005224144 8.031013145757997 3.538150105389532 -19.19709887809964 0.01837006979283819 10.419155064163032 0.06089322473573053 -5.669022606477885 -15.669936996179183 3.2047593727996486 -0.0009972430604515503 -0.03774578945280269 0.02774462056316764 0.0333812860700989 4.649889919632516 -0.026839065759060744 12.489399865912782 -8.223189074860226 6.929868574062988 0.03746681721424457 46.419715473197506 -0.032330719983748 -4.298616655256132 -14.701169672087383 -3.8813988871885985 -0.004089619587874048 0.013193576563140193 0.015477198999603994 -0.02193559019461965 -10.719140872245195 0.01731915545533874 
-0.008505124871884567 -0.02702851859654153 -0.03545992065230288 0.02447569345496078 1.854175915827926e-05 0.0018056842573575449 2.797679327631574 1.194603440553224 -1.9278909917387097 -0.8914853057020263 3.6159537497756205 0.4031621728732232 -1.1176300478980727 -1.4555165764827733 0.7711460736825115 0.4285066167082026 -0.17661589974745742 -0.36220768854807206 1.9668743076275443 13.83932253208769 -5.465574021499185 0.3845618366023795 0.5912469216929028 -13.288940903452463 2.172358628379026 -14.94321733485441 -1.0970537170959136 -12.620425522334923 3.935756186422988 -17.693572183932528 71.51530375104724 -14.894393788672364 24.36539601166434 10.148705933896142 1.485379351737906 91.75578369232367 2.1394165970784575 -0.034907400198367695 -0.1375153948439215 4.515813789328264 -0.0858608880638335 -1.6057695577642659 -0.020200838307808118 0.004263406129340789 -56.22302789819794 -0.031218314094050764 0.0011426016087544798 -56.25195297475343 -38.7260000147209 -0.02934736870416721 0.018767306575778752 -0.004044792564259532 0.006141211498695076 0.02540519740090486 -0.01324442335966605 -0.0037940571759629924 0.005800941132206181 -36.648805778064805 -0.023072574628911095 0.022906285756232603 -0.01920627152241991 -0.02974892878960631 0.006672798418523833 -0.028778525298306996 -0.03503978022460061 -0.02481725365433285 -19.709215491481263 -0.011995298245535874 0.04803853772590395 0.0011296902588203443 -0.02953443221076047 0.005022373988107833 -0.0025526234048208617 0.03205681847960781 0.01967881891727064 24.011935059408614 -0.025050004818252956 -0.02726404890507454 28.82805026471495 -0.04530472890823652 0.04468203661295936 28.881900805370595 0.020825904613251303 -0.018318131132167844 7.559692301576812 1.913920768223366 13.769181917433167 -71.63511676877495 21.583888748786467 -9.544275511096988 -3.352148202897929 -2.845673586397635 -53.75058031447283 -12.938203678072588 -1.0352082048818336 0.8217962907772028 -0.5183537454917376 0.11033548686737406 -8.166238431280163 0.039636796142007 -0.003124969751733063 44.5364798679237 0.005400815867154635 0.027862936388542515 44.58284378598061 12.450981347711531 0.034367645503792905 -0.046029227028617385 -0.005310390178474652 -0.02099013517721358 0.04034444125928466 0.042659846808299186 0.002587028342883404 0.00022741016327652383 11.064661108190318 0.0033539211745157223 0.005538879141169539 -0.04771718489514258 0.0008463367076170344 -0.049617091725449355 -0.0473965815985572 -0.008069570429621182 -0.038291063460658956 4.731050416307032 0.012801016077027062 -0.043701842248402914 0.02921275529117997 0.027366369240018402 0.0005789200063507368 0.015970719405885538 -0.007796091829103115 0.04868708486910205 -5.554538137133068 -0.02647682739798944 -0.010715843067250666 -6.745368536588607 -0.04577152563173754 -0.014559208884854454 -6.755497163170322 0.043435738838812236 -0.0006004510829214409 -0.02578777530771095 -0.030626310426812398 0.012246888279201213 8.023145845657455 3.483926468297744 -19.189757480921465 0.0260581429174992 10.427980154079764 0.0205074068937192 -5.606855087433791 -15.673320893947087 3.1872239458828413 0.02233252800462057 -0.03518756978181509 -0.044603651026370164 0.011968957474044813 4.6526276588672415 -0.023695066395890828 12.480212023419002 -8.222794181731526 6.877596433190747 0.026671388488158754 46.35105633497403 0.022272170725358018 -4.3345727272439305 -14.776731141340605 -3.8762980018432818 0.011787526463493946 -0.02007911745445495 0.015082290161966307 0.03199997569003852 -10.76479382228738 0.03963948625047062 
0.025245440099798306 -0.04005044205352483 -0.01136781437136783 0.010996894738901081 0.005143532574558864 0.026352266929577074 3.3149200769457536 1.3900384507353507 -2.030280011343127 -0.9143125851812726 3.593667304249632 0.37509417433664244 -1.0678941033155804 -1.3926052156633126 1.1291238406769368 0.4199106898226236 -0.27912962414074166 -0.37718062048519446 2.0470317424236453 13.75662150433307 -5.637309836300312 0.3348297890366346 0.5296507218632 -13.73870593898142 2.1931821684842734 -15.133686652111447 -1.1280488568621239 -13.143376428830711 4.089836515684865 -17.883179142257706 71.76309257780403 -15.996038144157838 25.090206086982718 8.905281119194852 1.2456771040920724 90.90655660181535 1.8662457972073232 -0.1085472862009384 -0.0904749174913812 4.5646866642022195 -0.11621853526112157 -1.5850442976007209 0.033123740745462114 0.04190370677030789 -56.267588371997235 -0.00792173396573312 0.021063669907808256 -56.2140888845481 -38.75966360091528 0.013227436210450529 0.036377101945696225 0.026856998813250498 0.010665165029818147 0.027477807692096925 -0.03437625083717786 0.02688522562271662 0.02026901567697372 -36.64643113091284 0.029639074148167816 0.02164324410634302 -0.036471045634062636 -0.04328988545354687 -0.02977617869032335 -0.005630666925113394 -0.04158742196435525 -0.013930756374429686 -19.71448546774369 0.026129108479778174 0.001998479871212078 -0.004932964017558092 -0.02245232867986551 -0.026638390941867686 0.0346116981401257 0.015394479061232404 -0.013150635975084634 24.040319708386154 -0.01618251864593145 0.006073235105465886 28.861754021610285 -0.0475094514262134 -0.04399553249139296 28.85772662718088 -0.03263585732933205 0.0017529872315522933 7.655217778052042 1.9155891710232154 13.98034944701071 -72.10068214860694 20.719389775835808 -9.04888506072837 -0.9286963621081525 -3.743177366600494 -49.950418118312825 -13.590219176813271 -0.8069867677269581 0.8017942543754912 -0.4541551694108548 0.10968476036208204 -8.083668165582113 -0.006953648373540507 0.012468776468193795 44.5378425624529 -0.0303978562916517 0.04274145786779801 44.59882291994902 12.419413994324591 -0.038702664868291964 -0.038051810425137736 -0.0072026287246560435 0.006525743776578725 -0.008184762455318541 -0.0409948401933301 -0.035438770242369876 -0.00909396649107489 11.114911052333278 0.022513515339293064 -0.046807194385273865 0.04129482240011404 0.010985231947974827 0.03934754182648942 -0.027346057682588593 0.04121769692377227 0.00623659892851512 4.802858882829085 0.008681273092283965 0.0027981627182109927 -0.03441509467271433 0.007292778505057474 -0.03582602772017952 0.032574889982056675 -0.024988380973650626 0.031963346246558506 -5.569498631887055 -0.037809591679552265 0.016108674686877454 -6.723524951204889 0.01136987440656277 0.015612147923682686 -6.702861094516883 -0.02149619579458489 -0.023676753414399426 -0.007246768746717888 0.033306239372510364 -0.015173204672628171 8.075300372312356 3.5072492248175724 -19.210384385595525 -0.011282839168562193 10.429360003559127 0.0625523006539944 -5.636253210685646 -15.65206154276909 3.1571755024935078 -0.013307997186941698 0.010071426621266637 0.0003485515391363217 0.01044427620793121 4.745199793634917 -0.006007833107777561 12.411052398770831 -8.284273726190934 6.88311826173624 -0.003249912793119135 46.37080008785438 0.03594384940732058 -4.284369615975432 -14.732520586791086 -3.814557390996975 -0.02792474328797871 -0.0056740124394224515 0.00035215243176911953 -0.011263028145686749 -10.696299644018618 -0.03802647222742352 
